# Apple ModelIO OBJ File: book
mtllib book.mtl
g 
v 0.900606 1.31571 -0.174292
v -0.871336 0.60754 0.41993
v 0.892033 0.613957 0.414545
v 0.900606 0.6263 0.404188
v 0.874378 1.33599 -0.191316
v -0.892033 1.32958 -0.185932
v 0.892033 1.32958 -0.185932
v -0.871336 1.33599 -0.191316
v -0.900606 0.6263 0.404188
v -0.900606 1.31571 -0.174292
v -0.892033 0.613957 0.414545
v 0.874378 0.60754 0.41993
v -0.878786 1.3533 -0.180182
v 0.879278 1.3533 -0.180182
v 0.897767 1.34674 -0.174671
v 0.906442 1.3326 -0.162809
v 0.906442 0.635834 0.421847
v 0.897767 0.622545 0.432998
v 0.879278 0.615978 0.438508
v -0.878786 0.615978 0.438508
v -0.898432 0.622545 0.432998
v -0.907107 0.635834 0.421847
v -0.907107 1.3326 -0.162809
v -0.898432 1.34674 -0.174671
v -0.675145 -1.14684 1.12363
v -0.448282 -1.14684 1.12363
v -0.448282 -1.06457 1.09619
v -0.675145 -1.06457 1.09619
v -0.902009 -1.06457 1.09619
v -0.902009 -1.14684 1.12363
v -0.675145 -1.24312 1.1383
v -0.448282 -1.24312 1.1383
v -0.902009 -1.24312 1.1383
v -0.675145 -1.35622 1.17217
v -0.448282 -1.35622 1.17217
v -0.902009 -1.35622 1.17217
v -0.675145 -1.4656 1.23712
v -0.448282 -1.4656 1.23712
v -0.902009 -1.4656 1.23712
v -0.675145 -1.66434 1.39655
v -0.448282 -1.66434 1.39655
v -0.902009 -1.66434 1.39655
v -0.448282 -1.89021 1.58783
v -0.902009 -1.89021 1.58783
v -0.448282 -0.978219 1.02463
v -0.675145 -0.978219 1.02463
v -0.902009 -0.978219 1.02463
v -1.33182 1.38759 -0.814254
v -1.33929 1.45454 -0.734467
v -1.33929 1.38839 -0.678965
v -1.33182 1.32144 -0.758752
v -1.31014 1.32719 -0.88623
v -1.31014 1.26105 -0.830729
v -1.27637 1.27926 -0.943351
v -1.27637 1.21312 -0.88785
v -1.23627 1.24509 -0.984077
v -1.23627 1.17894 -0.928576
v -1.19855 1.23533 -0.995701
v -1.19855 1.16919 -0.9402
v -1.15155 1.24537 -0.983735
v -1.15155 1.17923 -0.928233
v -1.36575 1.45454 -0.734467
v -1.35698 1.38039 -0.822824
v -1.33154 1.31351 -0.902532
v -1.10011 1.38839 -0.678965
v -1.29192 1.26043 -0.965789
v -1.24709 1.22636 -1.0064
v -1.19855 1.21461 -1.0204
v -1.1436 1.22798 -1.00447
v -1.10011 1.19555 -0.908779
v -1.35698 0.165184 0.196859
v -1.36575 0.239325 0.285216
v -1.33154 0.0983015 0.117151
v -1.29192 0.0452227 0.0538943
v -1.24709 0.0111447 0.0132817
v -1.19855 -0.000598435 -0.000713187
v -1.1436 0.0127677 0.0152159
v -1.10011 1.21521 -1.01968
v -1.10011 0 0
v -1.10011 1.2617 -0.96428
v 1.10011 1.21521 -1.01968
v 1.18646 1.14907 -0.964181
v 1.18646 0 0
v 1.17513 1.18225 -0.992023
v 1.14343 1.20654 -1.0124
v 1.18646 1.19555 -0.908779
v 1.17513 1.22874 -0.936621
v 1.10011 1.19555 -0.908779
v 1.14343 1.25302 -0.957002
v 1.10011 1.2617 -0.96428
v 1.10011 0.0464883 0.0554026
v 1.18646 0.0464883 0.0554026
v 1.10011 1.38839 -0.678965
v 1.10011 0.239325 0.285216
v -1.33182 -1.04283 1.22511
v -1.33182 -0.976691 1.16961
v -1.33929 -0.909742 1.2494
v -1.33929 -0.975886 1.3049
v -1.31014 -1.10323 1.15314
v -1.31014 -1.03709 1.09763
v -1.27637 -1.15116 1.09601
v -1.27637 -1.08502 1.04051
v -1.23627 -1.18533 1.05529
v -1.23627 -1.11919 0.999787
v -1.19855 -1.19509 1.04366
v -1.19855 -1.12894 0.988163
v -1.15155 -1.18505 1.05563
v -1.15155 -1.1189 1.00013
v -1.36575 -0.975886 1.3049
v -1.35698 -1.05003 1.21654
v -1.33154 -1.11691 1.13683
v -1.10011 -0.909742 1.2494
v -1.29192 -1.16999 1.07358
v -1.24709 -1.20407 1.03296
v -1.19855 -1.21581 1.01897
v -1.1436 -1.20244 1.0349
v -1.10011 -1.10258 1.01958
v -1.10011 -1.21521 1.01968
v -1.10011 -1.16872 1.07509
v 1.14343 -1.20654 1.0124
v 1.10011 -1.21521 1.01968
v 1.18646 -1.14907 0.964181
v 1.17513 -1.18225 0.992023
v 1.18646 -1.10258 1.01958
v 1.10011 -1.10258 1.01958
v 1.17513 -1.13576 1.04743
v 1.14343 -1.16005 1.06781
v 1.10011 -1.16872 1.07509
v 1.10011 -0.909742 1.2494
v -1.33182 1.52148 -0.65468
v -1.33182 1.45534 -0.599179
v -1.31014 1.58188 -0.582704
v -1.31014 1.51574 -0.527202
v -1.27637 1.62981 -0.525583
v -1.27637 1.56367 -0.470081
v -1.23627 1.66398 -0.484857
v -1.23627 1.59784 -0.429355
v -1.19855 1.67374 -0.473233
v -1.19855 1.60759 -0.417731
v -1.15155 1.6637 -0.485199
v -1.15155 1.59755 -0.429698
v -1.35698 1.52868 -0.64611
v -1.33154 1.59556 -0.566402
v -1.29192 1.64864 -0.503145
v -1.24709 1.68272 -0.462533
v -1.19855 1.69446 -0.448538
v -1.1436 1.68109 -0.464467
v -1.10011 1.58123 -0.449152
v -1.35698 0.313465 0.373573
v -1.33154 0.380348 0.453281
v -1.29192 0.433427 0.516538
v -1.24709 0.467505 0.55715
v -1.19855 0.479248 0.571145
v -1.1436 0.465881 0.555216
v -1.10011 0.478649 0.570432
v -1.10011 1.69386 -0.449251
v -1.10011 1.64737 -0.504654
v -0.922988 1.35163 -0.162087
v -0.914202 1.36788 -0.175721
v -0.892991 1.37461 -0.181369
v 1.10011 1.69386 -0.449251
v 0.892991 1.37461 -0.181369
v 0.914202 1.36788 -0.175721
v 1.14343 1.68519 -0.441973
v 1.17513 1.6609 -0.421591
v 1.18646 1.62772 -0.39375
v 0.922988 1.35163 -0.162087
v 0.922988 0.63361 0.440404
v 1.18646 0.478649 0.570432
v 0.914202 0.617361 0.454038
v 0.892991 0.610631 0.459686
v -0.892991 0.610631 0.459686
v -0.914202 0.617361 0.454038
v -0.922988 0.63361 0.440404
v 1.18646 1.58123 -0.449152
v 1.10011 1.58123 -0.449152
v 1.17513 1.61441 -0.476994
v 1.14343 1.6387 -0.497375
v 1.10011 1.64737 -0.504654
v 1.18646 0.432161 0.515029
v 1.10011 0.432161 0.515029
v -1.33182 -0.908937 1.38469
v -1.33182 -0.842793 1.32918
v -1.31014 -0.848541 1.45666
v -1.31014 -0.782397 1.40116
v -1.27637 -0.800611 1.51378
v -1.27637 -0.734467 1.45828
v -1.23627 -0.766438 1.55451
v -1.23627 -0.700294 1.49901
v -1.19855 -0.756684 1.56613
v -1.19855 -0.69054 1.51063
v -1.15155 -0.766725 1.55417
v -1.15155 -0.700581 1.49867
v -1.35698 -0.901746 1.39326
v -1.33154 -0.834863 1.47296
v -1.29192 -0.781784 1.53622
v -1.24709 -0.747706 1.57683
v -1.19855 -0.735963 1.59083
v -1.1436 -0.749329 1.5749
v -1.10011 -0.716906 1.47921
v -1.10011 -0.736561 1.59011
v -1.10011 -0.78305 1.53471
v 1.10011 -0.736561 1.59011
v 1.17513 -0.703598 1.56246
v 1.18646 -0.670417 1.53461
v 1.14343 -0.727887 1.58284
v 1.18646 -0.716906 1.47921
v 1.17513 -0.750086 1.50705
v 1.10011 -0.716906 1.47921
v 1.14343 -0.774376 1.52743
v 1.10011 -0.78305 1.53471
vn 0 1 -0
vn 0.148532 0.641162 0.752894
vn 0.145364 0.343214 0.92794
vn -0.18454 0.333102 0.924656
vn -0.156133 0.637508 0.754457
vn -0.653103 0.383685 0.652873
vn -0.501503 0.704144 0.502668
vn -0.75964 0.63063 0.158908
vn -0.927903 0.326441 0.180087
vn -0.924342 0.317902 -0.21102
vn -0.75945 0.628809 -0.166839
vn -0.643503 0.360447 -0.675264
vn -0.502564 0.69866 -0.509219
vn -0.158359 0.63411 -0.756853
vn -0.185325 0.306411 -0.933685
vn 0.146015 0.316553 -0.937269
vn 0.150667 0.637878 -0.755256
vn 0.617605 0.386309 -0.685076
vn 0.497015 0.703859 -0.507503
vn 0.757651 0.631617 -0.16439
vn 0.914519 0.345728 -0.210063
vn 0.917819 0.35425 0.179209
vn 0.757838 0.633385 0.15654
vn 0.627019 0.409804 0.662502
vn 0.496055 0.709144 0.501043
vn 0 0.895352 0.445359
vn 0 0.981781 0.190015
vn 0 0.88835 0.459167
vn 0 0.95974 0.280891
vn 0 0.995756 0.092032
vn 0 0.999925 0.012248
vn 0 0.999962 0.00875
vn 0 0.99999 -0.004554
vn 0 0.999981 0.006144
vn 0.988891 0.148641 -0
vn 1 -0 -0
vn 0.947326 0.320272 -0
vn 0.859897 0.510467 -0
vn 0.607976 0.793956 -0
vn 0.030757 0.999527 -0
vn -0.379967 0.925 -0
vn 0 0 -1
vn -0.987572 -0.157164 -0
vn -1 0 -0
vn -0.941553 -0.336864 -0
vn -0.839384 -0.54354 -0
vn -0.839383 -0.54354 -0
vn -0.576471 -0.817117 -0
vn 0.000928 -1 -0
vn -0.03333 -0.999444 -0
vn -0.41547 -0.909607 -0
vn -0.227305 0.973824 -0
vn 0 -1 -0
vn 0.867548 0 -0.497354
vn 0.991839 0 -0.127499
vn 0.497354 0 -0.867548
vn 0.127499 0 -0.991839
vn 0.707107 0.707107 -0
vn 0 0 1
vn 0.867548 0 0.497354
vn 0.991839 0 0.127499
vn 0.497354 0 0.867548
vn 0.127499 0 0.991839
vn 0.988891 -0.148641 -0
vn 0.947326 -0.320272 -0
vn 0.859897 -0.510467 -0
vn 0.607976 -0.793956 -0
vn 0.030756 -0.999527 -0
vn -0.379967 -0.925 -0
vn -0.987572 0.157164 -0
vn -0.941553 0.336864 -0
vn -0.839383 0.54354 -0
vn -0.576471 0.817117 -0
vn 0.000928 1 -0
vn -0.033331 0.999444 -0
vn -0.41547 0.909607 -0
vn -0.227305 -0.973824 -0
vn 0.246747 0.966941 0.064346
vn 0.133611 0.981784 0.135085
vn 0.060038 0.969274 0.238545
vn -0.060562 0.96944 0.237736
vn -0.131818 0.982395 0.132382
vn -0.24074 0.968587 0.06232
vn -0.239945 0.968751 -0.062826
vn -0.129353 0.982949 -0.130685
vn -0.058822 0.970837 -0.232414
vn 0.058323 0.970681 -0.233189
vn 0.131068 0.98237 -0.133307
vn 0.245912 0.967118 -0.064879
vt 0.439199 0.101485
vt 0.124158 0.265585
vt 0.437943 0.263587
vt 0.439464 0.260734
vt 0.434524 0.096806
vt 0.120198 0.098804
vt 0.437669 0.098283
vt 0.123879 0.097316
vt 0.118943 0.26126
vt 0.118678 0.102011
vt 0.120473 0.264109
vt 0.434804 0.265075
vt 0.112442 0.088039
vt 0.114097 0.091659
vt 0.44601 0.093913
vt 0.447536 0.090314
vt 0.448334 0.094932
vt 0.450987 0.092407
vt 0.452939 0.095991
vt 0.449256 0.097252
vt 0.448784 0.26694
vt 0.452388 0.268339
vt 0.447799 0.268916
vt 0.450289 0.271511
vt 0.446735 0.273426
vt 0.445589 0.269768
vt 0.113684 0.267802
vt 0.111672 0.271278
vt 0.110848 0.266702
vt 0.108102 0.269115
vt 0.106195 0.265776
vt 0.109947 0.26478
vt 0.1103 0.09506
vt 0.106674 0.093429
vt 0.111362 0.092679
vt 0.108746 0.090039
vt 0.676918 0.819773
vt 0.676918 0.885385
vt 0.651695 0.885385
vt 0.651695 0.819773
vt 0.651695 0.75416
vt 0.676918 0.75416
vt 0.705243 0.819773
vt 0.705242 0.885385
vt 0.705242 0.75416
vt 0.739581 0.819773
vt 0.739581 0.885385
vt 0.739581 0.75416
vt 0.776577 0.819773
vt 0.776577 0.885385
vt 0.776577 0.75416
vt 0.850682 0.819773
vt 0.850682 0.885385
vt 0.850682 0.754161
vt 0.936766 0.885385
vt 0.936766 0.754161
vt 0.619077 0.885385
vt 0.619077 0.819773
vt 0.619077 0.75416
vt 0.026942 0.081508
vt 0.026942 0.100868
vt 0.04304 0.100868
vt 0.04304 0.081508
vt 0.026942 0.063631
vt 0.04304 0.063631
vt 0.026942 0.048455
vt 0.04304 0.048455
vt 0.026942 0.03611
vt 0.04304 0.03611
vt 0.026942 0.028571
vt 0.04304 0.028571
vt 0.026942 0.01939
vt 0.04304 0.01939
vt 0.773368 0.992882
vt 0.773368 0.982813
vt 0.733502 0.979977
vt 0.729224 0.989556
vt 0.697533 0.971749
vt 0.689395 0.979903
vt 0.937416 0.819682
vt 0.982007 0.819682
vt 0.942851 0.85641
vt 0.938809 0.838991
vt 0.668978 0.958926
vt 0.657775 0.964859
vt 0.949147 0.870235
vt 0.648609 0.943692
vt 0.63746 0.947825
vt 0.642781 0.929343
vt 0.630444 0.929358
vt 0.963656 0.882904
vt 0.956623 0.880091
vt 0.648739 0.911453
vt 0.638378 0.908436
vt 0.982007 0.8753
vt 0.972418 0.880008
vt 0.306675 0.870086
vt 0.306675 0.848641
vt 0.010927 0.848641
vt 0.010927 0.870086
vt 0.306675 0.889945
vt 0.010927 0.889945
vt 0.306675 0.906926
vt 0.010927 0.906925
vt 0.306675 0.919798
vt 0.010927 0.919797
vt 0.306675 0.929414
vt 0.010927 0.929414
vt 0.306675 0.940306
vt 0.010927 0.940306
vt 0.010927 0.949169
vt 0.306675 0.949169
vt 0.658445 0.891872
vt 0.630765 0.891888
vt 0.04304 0.00875503
vt 0.026942 0.00875503
vt 0.933985 0.6085
vt 0.950406 0.592172
vt 0.950407 0.308515
vt 0.515571 0.308514
vt 0.51557 0.6085
vt 0.948252 0.600363
vt 0.942222 0.606359
vt 0.061486 0.029889
vt 0.059375 0.021859
vt 0.045388 0.029889
vt 0.053463 0.015981
vt 0.045388 0.013882
vt 0.978761 0.600414
vt 0.978761 0.592042
vt 0.96516 0.592042
vt 0.96516 0.600414
vt 0.011352 0.425436
vt 0.011352 0.433776
vt 0.024835 0.433776
vt 0.024835 0.425436
vt 0.011352 0.417133
vt 0.024835 0.417133
vt 0.045388 0.30798
vt 0.061486 0.30798
vt 0.042875 0.602079
vt 0.042875 0.194171
vt 0.026777 0.194171
vt 0.026777 0.602079
vt 0.978761 0.311512
vt 0.96516 0.311512
vt 0.011352 0.00922298
vt 0.024835 0.00922298
vt 0.292165 0.735954
vt 0.571821 0.735954
vt 0.571821 0.680336
vt 0.292165 0.680336
vt 0.577449 0.735879
vt 0.577449 0.680261
vt 0.987653 0.680261
vt 0.987653 0.735879
vt 0.817513 0.98956
vt 0.813235 0.979981
vt 0.857342 0.979908
vt 0.849204 0.971754
vt 0.888962 0.964864
vt 0.877759 0.958931
vt 0.909275 0.947828
vt 0.898126 0.943696
vt 0.916291 0.92936
vt 0.903953 0.929347
vt 0.908353 0.908439
vt 0.897992 0.911457
vt 0.602422 0.870086
vt 0.602422 0.848641
vt 0.602422 0.889945
vt 0.602422 0.906925
vt 0.602422 0.919797
vt 0.602422 0.929414
vt 0.602422 0.940305
vt 0.602422 0.949169
vt 0.915964 0.891891
vt 0.888285 0.891876
vt 0.942222 0.010674
vt 0.933981 0.00857198
vt 0.515571 0.008524
vt 0.950405 0.02486
vt 0.948252 0.016669
vt 0.061486 0.586071
vt 0.045388 0.586071
vt 0.059375 0.594101
vt 0.053463 0.59998
vt 0.045388 0.602079
vt 0.978761 0.022609
vt 0.96516 0.022609
vt 0.96516 0.030982
vt 0.978761 0.030982
vt 0.978761 0.014223
vt 0.96516 0.014223
vt 0.012509 0.680336
vt 0.012509 0.735954
vt 0.026942 0.120227
vt 0.04304 0.120227
vt 0.026942 0.138104
vt 0.04304 0.138104
vt 0.026942 0.15328
vt 0.04304 0.15328
vt 0.026942 0.165625
vt 0.04304 0.165625
vt 0.026942 0.173164
vt 0.04304 0.173164
vt 0.026942 0.182345
vt 0.04304 0.182345
vt 0.942851 0.782953
vt 0.938809 0.800372
vt 0.949147 0.769128
vt 0.963656 0.756459
vt 0.956622 0.759272
vt 0.982007 0.764063
vt 0.972418 0.759355
vt 0.306675 0.827195
vt 0.010927 0.827195
vt 0.306675 0.807335
vt 0.010927 0.807336
vt 0.306675 0.790354
vt 0.010927 0.790355
vt 0.306675 0.777482
vt 0.010927 0.777483
vt 0.306675 0.767865
vt 0.010927 0.767866
vt 0.306675 0.756973
vt 0.010927 0.756973
vt 0.306675 0.74811
vt 0.010927 0.74811
vt 0.04304 0.19298
vt 0.026942 0.19298
vt 0.070387 0.00561899
vt 0.103422 0.090607
vt 0.105312 0.086449
vt 0.109473 0.084544
vt 0.490206 0.008183
vt 0.450261 0.08683
vt 0.454532 0.088833
vt 0.498663 0.010536
vt 0.504867 0.01674
vt 0.507103 0.025131
vt 0.456469 0.093146
vt 0.455735 0.271133
vt 0.505409 0.309765
vt 0.453757 0.275243
vt 0.449555 0.277073
vt 0.108794 0.274761
vt 0.069227 0.306838
vt 0.104676 0.27276
vt 0.102793 0.268587
vt 0.061486 0.586072
vt 0.045388 0.586072
vt 0.059375 0.594102
vt 0.053464 0.59998
vt 0.292165 0.624718
vt 0.571821 0.624718
vt 0.577449 0.624643
vt 0.987653 0.624643
vt 0.602422 0.827195
vt 0.602422 0.807336
vt 0.602422 0.790355
vt 0.602422 0.777483
vt 0.602422 0.767866
vt 0.602422 0.756973
vt 0.602422 0.74811
vt 0.486828 0.610392
vt 0.501179 0.602331
vt 0.503392 0.594131
vt 0.067382 0.607563
vt 0.495092 0.608303
vt 0.053463 0.01598
vt 0.045388 0.013881
vt 0.012509 0.624718
usemtl material_1
f 1/1/1 2/2/1 3/3/1 4/4/1 
f 5/5/1 6/6/1 1/1/1 7/7/1 
f 5/5/1 8/8/1 6/6/1 
f 9/9/1 2/2/1 6/6/1 10/10/1 
f 9/9/1 11/11/1 2/2/1 
f 1/1/1 6/6/1 2/2/1 
f 12/12/1 3/3/1 2/2/1 
f 13/13/2 8/14/3 5/15/4 14/16/5 
f 7/17/6 15/18/7 14/16/5 5/15/4 
f 16/19/8 15/18/7 7/17/6 1/20/9 
f 16/19/8 1/20/9 4/21/10 17/22/11 
f 3/23/12 18/24/13 17/22/11 4/21/10 
f 19/25/14 18/24/13 3/23/12 12/26/15 
f 19/25/14 12/26/15 2/27/16 20/28/17 
f 11/29/18 21/30/19 20/28/17 2/27/16 
f 22/31/20 21/30/19 11/29/18 9/32/21 
f 22/31/20 9/32/21 10/33/22 23/34/23 
f 6/35/24 24/36/25 23/34/23 10/33/22 
f 13/13/2 24/36/25 6/35/24 8/14/3 
f 25/37/26 26/38/26 27/39/27 28/40/27 
f 29/41/27 30/42/26 25/37/26 28/40/27 
f 31/43/28 32/44/28 26/38/26 25/37/26 
f 30/42/26 33/45/28 31/43/28 25/37/26 
f 34/46/29 35/47/29 32/44/28 31/43/28 
f 33/45/28 36/48/29 34/46/29 31/43/28 
f 37/49/30 38/50/30 35/47/29 34/46/29 
f 36/48/29 39/51/30 37/49/30 34/46/29 
f 40/52/31 41/53/32 38/50/30 37/49/30 
f 39/51/30 42/54/32 40/52/31 37/49/30 
f 40/52/31 43/55/33 41/53/32 
f 42/54/32 44/56/33 40/52/31 
f 28/40/27 27/39/27 45/57/34 46/58/34 
f 47/59/34 29/41/27 28/40/27 46/58/34 
f 48/60/35 49/61/36 50/62/36 51/63/35 
f 52/64/37 48/60/35 51/63/35 53/65/37 
f 54/66/38 52/64/37 53/65/37 55/67/38 
f 56/68/39 54/66/38 55/67/38 57/69/39 
f 58/70/40 56/68/39 57/69/39 59/71/40 
f 60/72/41 58/70/40 59/71/40 61/73/41 
f 62/74/42 49/75/42 48/76/42 63/77/42 
f 63/77/42 48/76/42 52/78/42 64/79/42 
f 50/80/42 65/81/42 53/82/42 51/83/42 
f 64/79/42 52/78/42 54/84/42 66/85/42 
f 65/81/42 55/86/42 53/82/42 
f 66/85/42 54/84/42 56/87/42 67/88/42 
f 67/88/42 56/87/42 58/89/42 68/90/42 
f 55/86/42 65/81/42 59/91/42 57/92/42 
f 58/89/42 60/93/42 69/94/42 68/90/42 
f 59/91/42 65/81/42 70/95/42 61/96/42 
f 71/97/43 72/98/44 62/99/44 63/100/43 
f 73/101/45 71/97/43 63/100/43 64/102/45 
f 74/103/46 73/101/45 64/102/45 66/104/47 
f 75/105/48 74/103/46 66/104/47 67/106/48 
f 76/107/49 75/105/48 67/106/48 68/108/49 
f 77/109/50 76/107/49 68/108/49 69/110/50 
f 77/109/50 69/110/50 78/111/51 79/112/51 
f 69/94/42 60/93/42 80/113/42 78/114/42 
f 70/115/52 80/116/52 60/72/41 61/73/41 
f 81/117/53 82/118/53 83/119/53 79/120/53 
f 79/120/53 78/121/53 81/117/53 
f 84/122/53 82/118/53 81/117/53 85/123/53 
f 86/124/1 87/125/1 88/126/1 
f 87/125/1 89/127/1 88/126/1 
f 89/127/1 90/128/1 88/126/1 
f 87/129/54 86/130/55 82/131/55 84/132/54 
f 89/133/56 87/134/54 84/135/54 85/136/56 
f 90/137/57 89/133/56 85/136/56 81/138/57 
f 86/124/1 88/126/1 91/139/1 92/140/1 
f 70/141/52 88/142/58 90/143/1 80/144/52 
f 82/131/55 86/130/55 92/145/36 83/146/36 
f 80/147/42 90/137/57 81/138/57 78/148/42 
f 91/149/36 88/150/58 93/151/36 94/152/36 
f 70/153/42 65/154/42 93/155/42 88/156/42 
f 95/63/35 96/60/35 97/61/36 98/62/36 
f 99/65/37 100/64/37 96/60/35 95/63/35 
f 101/67/38 102/66/38 100/64/37 99/65/37 
f 103/69/39 104/68/39 102/66/38 101/67/38 
f 105/71/40 106/70/40 104/68/39 103/69/39 
f 107/73/41 108/72/41 106/70/40 105/71/40 
f 109/74/59 110/157/59 95/158/59 98/75/59 
f 110/157/59 111/159/59 99/160/59 95/158/59 
f 100/82/59 112/81/59 97/80/59 96/83/59 
f 111/159/59 113/161/59 101/162/59 99/160/59 
f 112/81/59 100/82/59 102/86/59 
f 113/161/59 114/163/59 103/164/59 101/162/59 
f 114/163/59 115/165/59 105/166/59 103/164/59 
f 106/91/59 112/81/59 102/86/59 104/92/59 
f 116/167/59 107/168/59 105/166/59 115/165/59 
f 117/95/59 112/81/59 106/91/59 108/96/59 
f 71/97/43 110/169/43 109/170/44 72/98/44 
f 73/101/45 111/171/45 110/169/43 71/97/43 
f 74/103/46 113/172/46 111/171/45 73/101/45 
f 75/105/48 114/173/48 113/172/46 74/103/46 
f 76/107/49 115/174/49 114/173/48 75/105/48 
f 77/109/50 116/175/50 115/174/49 76/107/49 
f 77/109/50 79/112/51 118/176/51 116/175/50 
f 116/167/59 118/177/59 119/178/59 107/168/59 
f 117/116/52 108/72/41 107/73/41 119/115/52 
f 83/119/53 120/179/53 121/180/53 118/181/53 
f 118/181/53 79/120/53 83/119/53 
f 122/182/53 123/183/53 120/179/53 83/119/53 
f 124/184/1 125/185/1 126/186/1 
f 126/186/1 125/185/1 127/187/1 
f 127/187/1 125/185/1 128/188/1 
f 126/189/60 123/190/60 122/191/61 124/192/61 
f 127/193/62 120/194/62 123/190/60 126/189/60 
f 128/138/63 121/137/63 120/133/62 127/136/62 
f 124/184/1 92/140/1 91/139/1 125/185/1 
f 117/141/52 119/144/52 128/143/1 125/142/1 
f 122/191/61 83/146/36 92/145/36 124/192/61 
f 119/148/59 118/147/59 121/137/63 128/138/63 
f 91/149/36 94/152/36 129/195/36 125/196/36 
f 117/153/59 125/156/59 129/155/59 112/154/59 
f 130/197/64 131/198/64 50/62/36 49/61/36 
f 132/199/65 133/200/65 131/198/64 130/197/64 
f 134/201/66 135/202/66 133/200/65 132/199/65 
f 136/203/67 137/204/67 135/202/66 134/201/66 
f 138/205/68 139/206/68 137/204/67 136/203/67 
f 140/207/69 141/208/69 139/206/68 138/205/68 
f 62/74/42 142/157/42 130/158/42 49/75/42 
f 142/157/42 143/159/42 132/160/42 130/158/42 
f 133/209/42 65/81/42 50/80/42 131/210/42 
f 143/159/42 144/161/42 134/162/42 132/160/42 
f 65/81/42 133/209/42 135/211/42 
f 144/161/42 145/163/42 136/164/42 134/162/42 
f 145/163/42 146/165/42 138/166/42 136/164/42 
f 139/212/42 65/81/42 135/211/42 137/213/42 
f 147/167/42 140/168/42 138/166/42 146/165/42 
f 148/214/42 65/81/42 139/212/42 141/215/42 
f 149/216/70 142/217/70 62/99/44 72/98/44 
f 150/218/71 143/219/71 142/217/70 149/216/70 
f 151/220/72 144/221/72 143/219/71 150/218/71 
f 152/222/73 145/223/73 144/221/72 151/220/72 
f 153/224/74 146/225/74 145/223/73 152/222/73 
f 154/226/75 147/227/75 146/225/74 153/224/74 
f 154/226/75 155/228/76 156/229/76 147/227/75 
f 147/167/42 156/177/42 157/178/42 140/168/42 
f 148/230/77 141/208/69 140/207/69 157/231/77 
f 156/232/1 158/233/78 159/234/79 160/235/80 
f 161/236/1 156/232/1 160/235/80 162/237/81 
f 161/236/1 162/237/81 163/238/82 164/239/1 
f 164/239/1 163/238/82 165/240/1 
f 166/241/1 165/240/1 163/238/82 167/242/83 
f 167/242/83 168/243/84 169/244/1 166/241/1 
f 170/245/85 171/246/86 169/244/1 168/243/84 
f 171/246/86 172/247/87 155/248/1 169/244/1 
f 173/249/88 174/250/89 155/248/1 172/247/87 
f 158/233/78 156/232/1 155/248/1 174/250/89 
f 175/251/53 176/252/53 177/253/53 
f 177/253/53 176/252/53 178/254/53 
f 178/254/53 176/252/53 179/188/53 
f 177/132/54 165/129/54 166/130/55 175/131/55 
f 178/136/56 164/133/56 165/134/54 177/135/54 
f 179/138/57 161/137/57 164/133/56 178/136/56 
f 175/251/53 180/140/53 181/139/53 176/252/53 
f 148/141/77 157/144/77 179/143/53 176/142/53 
f 166/130/55 169/145/36 180/146/36 175/131/55 
f 157/148/42 156/147/42 161/137/57 179/138/57 
f 181/255/36 94/152/36 93/151/36 176/256/36 
f 148/257/42 176/258/42 93/155/42 65/154/42 
f 182/198/64 98/62/36 97/61/36 183/197/64 
f 184/200/65 182/198/64 183/197/64 185/199/65 
f 186/202/66 184/200/65 185/199/65 187/201/66 
f 188/204/67 186/202/66 187/201/66 189/203/67 
f 190/206/68 188/204/67 189/203/67 191/205/68 
f 192/208/69 190/206/68 191/205/68 193/207/69 
f 109/74/59 98/75/59 182/76/59 194/77/59 
f 194/77/59 182/76/59 184/78/59 195/79/59 
f 97/80/59 112/81/59 185/209/59 183/210/59 
f 195/79/59 184/78/59 186/84/59 196/85/59 
f 112/81/59 187/211/59 185/209/59 
f 196/85/59 186/84/59 188/87/59 197/88/59 
f 197/88/59 188/87/59 190/89/59 198/90/59 
f 187/211/59 112/81/59 191/212/59 189/213/59 
f 190/89/59 192/93/59 199/94/59 198/90/59 
f 191/212/59 112/81/59 200/214/59 193/215/59 
f 149/216/70 72/98/44 109/170/44 194/259/70 
f 150/218/71 149/216/70 194/259/70 195/260/71 
f 151/220/72 150/218/71 195/260/71 196/261/72 
f 152/222/73 151/220/72 196/261/72 197/262/73 
f 153/224/74 152/222/73 197/262/73 198/263/74 
f 154/226/75 153/224/74 198/263/74 199/264/75 
f 154/226/75 199/264/75 201/265/76 155/228/76 
f 199/94/59 192/93/59 202/113/59 201/114/59 
f 200/231/77 202/230/77 192/208/69 193/207/69 
f 203/266/1 204/267/1 205/268/1 169/244/1 
f 203/266/1 169/244/1 155/248/1 201/269/1 
f 206/270/1 204/267/1 203/266/1 
f 207/124/53 208/125/53 209/126/53 
f 208/125/53 210/271/53 209/126/53 
f 210/271/53 211/272/53 209/126/53 
f 208/190/60 207/191/61 205/192/61 204/189/60 
f 210/194/62 208/190/60 204/189/60 206/193/62 
f 211/137/63 210/133/62 206/136/62 203/138/63 
f 207/124/53 209/126/53 181/139/53 180/140/53 
f 200/141/77 209/142/53 211/143/53 202/144/77 
f 205/192/61 207/191/61 180/146/36 169/145/36 
f 202/147/59 211/137/63 203/138/63 201/148/59 
f 181/255/36 209/273/36 129/195/36 94/152/36 
f 200/257/59 112/154/59 129/155/59 209/258/59 
f 171/246/86 19/25/14 20/28/17 172/247/87 
f 171/246/86 170/245/85 18/24/13 19/25/14 
f 18/24/13 170/245/85 168/243/84 17/22/11 
f 167/242/83 16/19/8 17/22/11 168/243/84 
f 167/242/83 163/238/82 15/18/7 16/19/8 
f 15/18/7 163/238/82 162/237/81 14/16/5 
f 160/235/80 13/13/2 14/16/5 162/237/81 
f 160/235/80 159/234/79 24/36/25 13/13/2 
f 24/36/25 159/234/79 158/233/78 23/34/23 
f 174/250/89 22/31/20 23/34/23 158/233/78 
f 174/250/89 173/249/88 21/30/19 22/31/20 
f 21/30/19 173/249/88 172/247/87 20/28/17 
s off
